<svg width="215" height="200" viewBox="0 0 215 200" fill="none" xmlns="http://www.w3.org/2000/svg">
<mask id="mask0_11_171" style="mask-type:luminance" maskUnits="userSpaceOnUse" x="0" y="0" width="215" height="200">
<path d="M181.292 134.125H33.7083C25.3208 134.125 17.2769 137.457 11.3461 143.388C5.41522 149.319 2.08331 157.362 2.08331 165.75C2.08331 174.137 5.41522 182.181 11.3461 188.112C17.2769 194.043 25.3208 197.375 33.7083 197.375H181.292C189.679 197.375 197.723 194.043 203.654 188.112C209.585 182.181 212.917 174.137 212.917 165.75C212.917 157.362 209.585 149.319 203.654 143.388C197.723 137.457 189.679 134.125 181.292 134.125ZM170.75 91.9583C181.933 91.9583 192.659 87.5157 200.566 79.608C208.474 71.7002 212.917 60.9749 212.917 49.7916C212.917 38.6083 208.474 27.8831 200.566 19.9753C192.659 12.0675 181.933 7.62496 170.75 7.62496C159.567 7.62496 148.841 12.0675 140.934 19.9753C133.026 27.8831 128.583 38.6083 128.583 49.7916C128.583 60.9749 133.026 71.7002 140.934 79.608C148.841 87.5157 159.567 91.9583 170.75 91.9583ZM2.08331 49.7916L49.5208 2.35413L96.9583 49.7916L49.5208 97.2291L2.08331 49.7916Z" fill="white" stroke="white" stroke-width="4" stroke-linecap="round" stroke-linejoin="round"/>
</mask>
<g mask="url(#mask0_11_171)">
<path d="M-19 -24H234V229H-19V-24Z" fill="#D83F31"/>
</g>
</svg>
