<svg fill="none" height="557" viewBox="0 0 994 557" width="994" xmlns="http://www.w3.org/2000/svg" xmlns:xlink="http://www.w3.org/1999/xlink"><filter id="a" color-interpolation-filters="sRGB" filterUnits="userSpaceOnUse" height="458.472" width="490.834" x="255.033" y="54.0707"><feFlood flood-opacity="0" result="BackgroundImageFix"/><feBlend in="SourceGraphic" in2="BackgroundImageFix" mode="normal" result="shape"/><feColorMatrix in="SourceAlpha" result="hardAlpha" type="matrix" values="0 0 0 0 0 0 0 0 0 0 0 0 0 0 0 0 0 0 127 0"/><feOffset dx="6" dy="10"/><feGaussianBlur stdDeviation="11.2"/><feComposite in2="hardAlpha" k2="-1" k3="1" operator="arithmetic"/><feColorMatrix type="matrix" values="0 0 0 0 0 0 0 0 0 0 0 0 0 0 0 0 0 0 0.25 0"/><feBlend in2="shape" mode="normal" result="effect1_innerShadow_35_8"/></filter><mask id="b" height="449" maskUnits="userSpaceOnUse" width="485" x="255" y="54"><path d="m667.142 357.092h-339.383c-19.288 0-37.786 7.662-51.425 21.301-13.638 13.638-21.301 32.136-21.301 51.424s7.663 37.786 21.301 51.425c13.639 13.638 32.137 21.3 51.425 21.3h339.383c19.288 0 37.786-7.662 51.425-21.3 13.638-13.639 21.301-32.137 21.301-51.425s-7.663-37.786-21.301-51.424c-13.639-13.639-32.137-21.301-51.425-21.301zm-24.241-96.967c25.717 0 50.381-10.216 68.566-28.401 18.184-18.185 28.401-42.848 28.401-68.566 0-25.717-10.217-50.381-28.401-68.5655-18.185-18.1849-42.849-28.401-68.566-28.401-25.718 0-50.381 10.2161-68.566 28.401-18.185 18.1845-28.401 42.8485-28.401 68.5655 0 25.718 10.216 50.381 28.401 68.566s42.848 28.401 68.566 28.401zm-387.868-96.967 109.088-109.0873 109.088 109.0873-109.088 109.088z" fill="#fff"/></mask><path d="m4.5 4.5h985v547.928h-985z" fill="#e9b824" stroke="#d83f31" stroke-width="9"/><g filter="url(#a)"><g mask="url(#b)"><path d="m206.55-6.53345h581.801v581.80145h-581.801z" fill="#d83f31"/></g></g></svg>