<svg width="53" height="36" viewBox="0 0 53 36" fill="none" xmlns="http://www.w3.org/2000/svg">
<rect width="52.3636" height="36" rx="18" fill="#D83F31"/>
<rect x="1" y="1" width="50.3636" height="34" rx="17" stroke="black" stroke-opacity="0.3" stroke-width="2"/>
<path d="M24.25 17.7614V7.53409C24.25 7.12722 24.4116 6.73702 24.6993 6.44932C24.987 6.16163 25.3772 6 25.7841 6C26.191 6 26.5812 6.16163 26.8689 6.44932C27.1566 6.73702 27.3182 7.12722 27.3182 7.53409V17.7614C27.3182 18.1682 27.1566 18.5584 26.8689 18.8461C26.5812 19.1338 26.191 19.2955 25.7841 19.2955C25.3772 19.2955 24.987 19.1338 24.6993 18.8461C24.4116 18.5584 24.25 18.1682 24.25 17.7614ZM32.7578 7.27841C32.4172 7.06866 32.0081 7.00027 31.6177 7.08783C31.2274 7.17538 30.8867 7.41194 30.6682 7.74709C30.4498 8.08224 30.3709 8.48945 30.4484 8.88191C30.5259 9.27438 30.7537 9.62105 31.0831 9.84801C33.8905 11.6723 35.5 14.5653 35.5 17.7614C35.5 20.3382 34.4764 22.8095 32.6543 24.6315C30.8322 26.4536 28.3609 27.4773 25.7841 27.4773C23.2073 27.4773 20.736 26.4536 18.9139 24.6315C17.0918 22.8095 16.0682 20.3382 16.0682 17.7614C16.0682 14.5653 17.6777 11.6723 20.4851 9.84162C20.797 9.60786 21.0082 9.26415 21.0759 8.8803C21.1435 8.49645 21.0625 8.10123 20.8493 7.77494C20.6361 7.44864 20.3067 7.21573 19.928 7.12351C19.5493 7.03128 19.1497 7.08667 18.8104 7.27841C15.117 9.67926 13 13.503 13 17.7614C13 21.1519 14.3469 24.4036 16.7444 26.8011C19.1419 29.1986 22.3935 30.5455 25.7841 30.5455C29.1746 30.5455 32.4263 29.1986 34.8238 26.8011C37.2213 24.4036 38.5682 21.1519 38.5682 17.7614C38.5682 13.503 36.4511 9.67926 32.7578 7.27841Z" fill="#AC291D"/>
</svg>
