<svg width="53" height="36" viewBox="0 0 53 36" fill="none" xmlns="http://www.w3.org/2000/svg">
<rect width="52.3636" height="36" rx="18" fill="#D83F31"/>
<rect x="1" y="1" width="50.3636" height="34" rx="17" stroke="black" stroke-opacity="0.3" stroke-width="2"/>
<path d="M20.9507 6.36036C21.1649 6.59116 21.2853 6.90416 21.2853 7.23052C21.2853 7.55688 21.1649 7.86988 20.9507 8.10068L18.9015 10.3075H27.857C29.6653 10.3075 31.433 10.8849 32.9366 11.9669C34.4401 13.0488 35.612 14.5866 36.304 16.3857C36.996 18.1849 37.1771 20.1647 36.8243 22.0746C36.4715 23.9846 35.6008 25.7391 34.3221 27.1161C33.0434 28.4931 31.4143 29.4309 29.6407 29.8108C27.8672 30.1907 26.0288 29.9957 24.3582 29.2505C22.6875 28.5053 21.2596 27.2432 20.2549 25.624C19.2503 24.0048 18.7141 22.1011 18.7141 20.1537C18.7141 19.8273 18.8345 19.5143 19.0488 19.2834C19.2632 19.0526 19.5538 18.923 19.857 18.923C20.1601 18.923 20.4508 19.0526 20.6651 19.2834C20.8794 19.5143 20.9998 19.8273 20.9998 20.1537C20.9998 21.6143 21.402 23.042 22.1555 24.2565C22.909 25.4709 23.9799 26.4174 25.2329 26.9763C26.4859 27.5352 27.8646 27.6815 29.1948 27.3965C30.525 27.1116 31.7468 26.4083 32.7058 25.3755C33.6648 24.3427 34.3179 23.0269 34.5825 21.5944C34.8471 20.1619 34.7113 18.6771 34.1923 17.3277C33.6733 15.9784 32.7944 14.825 31.6667 14.0136C30.539 13.2021 29.2133 12.769 27.857 12.769H18.9015L20.9507 14.9758C21.1589 15.208 21.2741 15.5189 21.2715 15.8416C21.2688 16.1643 21.1487 16.473 20.9368 16.7012C20.7249 16.9294 20.4382 17.0588 20.1386 17.0616C19.8389 17.0644 19.5502 16.9404 19.3347 16.7162L15.3346 12.4084C15.1204 12.1776 15 11.8646 15 11.5383C15 11.2119 15.1204 10.8989 15.3346 10.6681L19.3347 6.36036C19.549 6.12962 19.8396 6 20.1427 6C20.4457 6 20.7364 6.12962 20.9507 6.36036Z" fill="#AC291D"/>
</svg>
