<svg width="65" height="48" viewBox="0 0 65 48" fill="none" xmlns="http://www.w3.org/2000/svg">
<rect width="65" height="48" fill="#1E1E1E"/>
<g id="MacBook Pro 14&#34; - 9">
<rect width="1512" height="982" transform="translate(-417 -292)" fill="#219C90"/>
<g id="base console" filter="url(#filter0_d_0_1)">
<rect x="-169" y="-40" width="1017" height="478" rx="142" fill="#E9B824"/>
</g>
<g id="icona power">
<g id="tasto on" filter="url(#filter1_d_0_1)">
<rect x="6" y="2" width="52.3636" height="36" rx="18" fill="#D83F31"/>
<rect x="7" y="3" width="50.3636" height="34" rx="17" stroke="black" stroke-opacity="0.3" stroke-width="2"/>
</g>
<path id="Vector" d="M30.25 19.7614V9.53409C30.25 9.12722 30.4116 8.73702 30.6993 8.44932C30.987 8.16163 31.3772 8 31.7841 8C32.191 8 32.5812 8.16163 32.8689 8.44932C33.1566 8.73702 33.3182 9.12722 33.3182 9.53409V19.7614C33.3182 20.1682 33.1566 20.5584 32.8689 20.8461C32.5812 21.1338 32.191 21.2955 31.7841 21.2955C31.3772 21.2955 30.987 21.1338 30.6993 20.8461C30.4116 20.5584 30.25 20.1682 30.25 19.7614ZM38.7578 9.27841C38.4172 9.06866 38.0081 9.00027 37.6177 9.08783C37.2274 9.17538 36.8867 9.41194 36.6682 9.74709C36.4498 10.0822 36.3709 10.4894 36.4484 10.8819C36.5259 11.2744 36.7537 11.621 37.0831 11.848C39.8905 13.6723 41.5 16.5653 41.5 19.7614C41.5 22.3382 40.4764 24.8095 38.6543 26.6315C36.8322 28.4536 34.3609 29.4773 31.7841 29.4773C29.2073 29.4773 26.736 28.4536 24.9139 26.6315C23.0918 24.8095 22.0682 22.3382 22.0682 19.7614C22.0682 16.5653 23.6777 13.6723 26.4851 11.8416C26.797 11.6079 27.0082 11.2642 27.0759 10.8803C27.1435 10.4964 27.0625 10.1012 26.8493 9.77494C26.6361 9.44864 26.3067 9.21573 25.928 9.12351C25.5493 9.03128 25.1497 9.08667 24.8104 9.27841C21.117 11.6793 19 15.503 19 19.7614C19 23.1519 20.3469 26.4036 22.7444 28.8011C25.1419 31.1986 28.3935 32.5455 31.7841 32.5455C35.1746 32.5455 38.4263 31.1986 40.8238 28.8011C43.2213 26.4036 44.5682 23.1519 44.5682 19.7614C44.5682 15.503 42.4511 11.6793 38.7578 9.27841Z" fill="#AC291D"/>
</g>
</g>
<defs>
<filter id="filter0_d_0_1" x="-176" y="-45" width="1043" height="504" filterUnits="userSpaceOnUse" color-interpolation-filters="sRGB">
<feFlood flood-opacity="0" result="BackgroundImageFix"/>
<feColorMatrix in="SourceAlpha" type="matrix" values="0 0 0 0 0 0 0 0 0 0 0 0 0 0 0 0 0 0 127 0" result="hardAlpha"/>
<feMorphology radius="3" operator="dilate" in="SourceAlpha" result="effect1_dropShadow_0_1"/>
<feOffset dx="6" dy="8"/>
<feGaussianBlur stdDeviation="5"/>
<feComposite in2="hardAlpha" operator="out"/>
<feColorMatrix type="matrix" values="0 0 0 0 0 0 0 0 0 0 0 0 0 0 0 0 0 0 0.25 0"/>
<feBlend mode="normal" in2="BackgroundImageFix" result="effect1_dropShadow_0_1"/>
<feBlend mode="normal" in="SourceGraphic" in2="effect1_dropShadow_0_1" result="shape"/>
</filter>
<filter id="filter1_d_0_1" x="0" y="0" width="64.3636" height="48" filterUnits="userSpaceOnUse" color-interpolation-filters="sRGB">
<feFlood flood-opacity="0" result="BackgroundImageFix"/>
<feColorMatrix in="SourceAlpha" type="matrix" values="0 0 0 0 0 0 0 0 0 0 0 0 0 0 0 0 0 0 127 0" result="hardAlpha"/>
<feOffset dy="4"/>
<feGaussianBlur stdDeviation="3"/>
<feComposite in2="hardAlpha" operator="out"/>
<feColorMatrix type="matrix" values="0 0 0 0 0 0 0 0 0 0 0 0 0 0 0 0 0 0 0.15 0"/>
<feBlend mode="normal" in2="BackgroundImageFix" result="effect1_dropShadow_0_1"/>
<feBlend mode="normal" in="SourceGraphic" in2="effect1_dropShadow_0_1" result="shape"/>
</filter>
</defs>
</svg>
